<svg xmlns="http://www.w3.org/2000/svg" width="2048" height="2048" viewBox="0 0 2048 2048"><path fill="#f6f5f3" d="M0 0h2048v2048H0z"/><path fill="#393939" d="M1309.95 770.19c56.97-2.015 115.29.863 172.43-.37 12.31-.266 25.9-.45 38.02.844 20.52 2.188 31.66 21.029 31.5 40.304-.06 27.881-.12 55.565-.09 83.325l-.04 190.147.06 104.34c.03 18.44.76 37.61-.64 55.89-2.5 24.04-20.2 33.34-42.09 33.32-60.31-.04-120.55-.3-180.87.03-14.26.08-29.24.35-40.16-10.77-12.33-11.66-11.78-29.33-11.16-45.4 2.69-70.08-.77-137.7-54.64-190.15-33.78-32.89-76.28-50.494-124.16-49.697-88.92 1.48-160.841 69.977-179.432 154.837-5.068 22.63-5.135 40.21-4.919 63.03.108 11.35.828 31.83-1.846 42.3a44.34 44.34 0 0 1-11.354 19.89c-13.007 12.96-26.859 13.5-43.704 13.55l-221.152-.05-64.054.07c-30.319.03-68.717 2.89-74.796-39.43-2.62-18.23-1.039-41.61-1.02-60.35l.088-117.1c-.164-41.88 8.627-63.999 55.938-63.985-.021-6.669-.725-17.59 8.925-18.001 13.817-.587 32.404-3.029 45.181 1.988 3.836 1.507 3.829 12.356 3.919 15.89 4.796-.02 10.05.306 14.781-.428 15.8-2.451 20.043-30.612 28.25-42.222 5.153-7.289 11.85-11.577 20.7-12.855 13.212-1.909 81.827-2.136 92.552 1.374 8.358 2.735 14.574 7.85 19.007 15.422 6.353 10.85 8.641 27.089 19.426 34.487 8.621 5.913 20.923 4.951 30.888 4.63 69.812-2.246 87.462-33.286 143.069-61.872a272.5 272.5 0 0 1 72.233-25.302c78.52-15.827 160.14 3.101 226.01 47.591 71.96 48.613 118.36 125.383 138.4 208.883 3.55 14.77 6.43 29.56 9.33 44.49 13.77-.07 95.07 1.51 102.21-1.12 2.7-10.46 1.62-92.36 1.62-108.17l-.09-270.214-227.56.059c-.76 38.711-.23 79.172-.27 118.016-8-6.346-15.05-10.984-23.53-16.591l-.15-84.233c-.05-31.752-6.95-68.122 33.19-76.397"/><path fill="#f6f5f3" d="M707.127 1031.56c54.737-5.74 103.682 34.18 109.055 88.95 5.373 54.78-34.881 103.45-89.69 108.46-54.289 4.95-102.402-34.84-107.724-89.09s34.141-102.63 88.359-108.32"/><path fill="#393939" d="M715.793 1052.58c42.909-1.01 78.52 32.94 79.544 75.85 1.023 42.91-32.929 78.53-75.838 79.55-42.916 1.03-78.539-32.93-79.563-75.84-1.024-42.92 32.941-78.54 75.857-79.56"/><path fill="#f6f5f3" d="M707.761 1075.57c30.421-5.47 59.468 14.91 64.669 45.38s-15.44 59.33-45.955 64.26c-30.132 4.87-58.556-15.46-63.692-45.54-5.135-30.09 14.937-58.7 44.978-64.1"/><path fill="#f6f5f3" d="M840.085 1026.18c11.186-.62 12.321.29 19.152 9 3.304-5.37 4.427-9.13 11.276-8.38l1.183 1.65c-.481 4.04-6.129 12.68-8.544 17.03 2.627 10.73 2.003 9.46 10.627 16.56-2.607 2.41-3.382 1.9-7.416 2.85-6.806-2.22-6.379-2.97-9.207-9.72-6.462 6.14-14.872 12.21-24.355 8.96a14.4 14.4 0 0 1-8.484-7.52c-6.116-13 4.471-25.09 15.768-30.43"/><path fill="#393939" d="M842.434 1029.65c8.466 1.59 9.161 7.17 11.213 14.3-4.746 6.95-6.239 9.2-12.184 15.05-4.209 1.02-4.982 1.15-8.546-.9-6.133-8.19 2.944-22.74 9.517-28.45"/><path fill="#f6f5f3" d="M1381.48 794.202c16.91-.623 34.3-.229 51.26-.513 6.51-.108 15.56-.039 17.9 6.909-1.3 4.098-.76 2.744-4.28 5.978-11.8.568-24.67.394-36.54.39-8.82-.002-28.49 2.475-32.24-6.657 1.04-4.024.68-2.752 3.9-6.107"/><path fill="#393939" d="m1188.78 1106.01 19.05-.22-5.52 24.53c-5.54 21.48-10.4 43.89-15.79 65.58h-19.55c-5.15-19.84-9.71-40.51-14.75-60.54-4.24 19.77-9.63 40.81-14.58 60.47l-19.3.04c-7.13-22.65-15.9-65.3-21.74-89.99l19.1.11c4.64 20.52 8.58 41.22 13.21 61.79 5.37-19.4 10.38-42.12 15.18-61.9l16.54.03c5.45 20.61 10.24 41.39 14.39 62.31 5.08-17.11 9.97-44.19 13.76-62.21"/><path fill="#393939" d="M1000.23 1105.99c25 .13 74.44-7.7 67.02 34.41-1.56 8.85-7.7 13.83-14.76 18.48 5.5 12 12.57 25.42 18.92 36.97l-20.26.16c-3.71-3.6-15.01-27.41-17.91-33.22l-14.02-.1-.03 33.22-18.84.07z"/><path fill="#f6f5f3" d="M1019.24 1121.22c14.97-.31 41.43.27 25.53 23.31-7.99 4.33-16.29 3.21-25.51 3.15z"/></svg>